# xmcd CD database file
#
# Track frame offsets:
#	150
#	17468
#	31864
#	45318
#	69897
#	91151
#	110664
#	132686
#	148904
#	174571
#	191699
#	204183
#
# Disc length: 2978 seconds
#
# Revision: 0
# Processed by: cddbd v1.4PL0 Copyright (c) Steve Scherf et al.
# Submitted via: CDex 1.50Beta7
#
DISCID=9e0ba00c
DTITLE=Lonstar - Greatest Hits vol. 2
DYEAR=1900
DGENRE=Country
TTITLE0=Radio
TTITLE1=Rozne kolory
TTITLE2=Dla kierowcow
TTITLE3=Anioly na wygnaniu
TTITLE4=Nazywaja mnie buntownikiem
TTITLE5=Dlatego kocham ciebie
TTITLE6=Caly swiat, ona i ja
TTITLE7=Legenda europejskiego cowobya
TTITLE8=Tym, co nie zasneli
TTITLE9=2000 koni
TTITLE10=Susza
TTITLE11=Good Ole Country Music
EXTD=
EXTT0=
EXTT1=
EXTT2=
EXTT3=
EXTT4=
EXTT5=
EXTT6=
EXTT7=
EXTT8=
EXTT9=
EXTT10=
EXTT11=
PLAYORDER=
